<?xml version="1.0" encoding="UTF-8" standalone="no"?>
<svg
   xmlns:dc="http://purl.org/dc/elements/1.1/"
   xmlns:cc="http://creativecommons.org/ns#"
   xmlns:rdf="http://www.w3.org/1999/02/22-rdf-syntax-ns#"
   xmlns:svg="http://www.w3.org/2000/svg"
   xmlns="http://www.w3.org/2000/svg"
   xmlns:sodipodi="http://sodipodi.sourceforge.net/DTD/sodipodi-0.dtd"
   xmlns:inkscape="http://www.inkscape.org/namespaces/inkscape"
   version="1.1"
   x="0px"
   y="0px"
   viewBox="0 0 100 125"
   id="svg10"
   sodipodi:docname="play.svg"
   inkscape:version="0.92.3 (2405546, 2018-03-11)">
  <metadata
     id="metadata16">
    <rdf:RDF>
      <cc:Work
         rdf:about="">
        <dc:format>image/svg+xml</dc:format>
        <dc:type
           rdf:resource="http://purl.org/dc/dcmitype/StillImage" />
        <dc:title></dc:title>
      </cc:Work>
    </rdf:RDF>
  </metadata>
  <defs
     id="defs14" />
  <sodipodi:namedview
     pagecolor="#ffffff"
     bordercolor="#666666"
     borderopacity="1"
     objecttolerance="10"
     gridtolerance="10"
     guidetolerance="10"
     inkscape:pageopacity="0"
     inkscape:pageshadow="2"
     inkscape:window-width="1366"
     inkscape:window-height="715"
     id="namedview12"
     showgrid="false"
     units="mm"
     height="1"
     inkscape:zoom="2.6700352"
     inkscape:cx="28.597385"
     inkscape:cy="59.541696"
     inkscape:window-x="-8"
     inkscape:window-y="-8"
     inkscape:window-maximized="1"
     inkscape:current-layer="svg10" />
  <g
     transform="translate(0,-952.36218)"
     id="g4">
    <path
       style="text-indent:0;text-transform:none;direction:ltr;block-progression:tb;baseline-shift:baseline;color:#000000;enable-background:accumulate;"
       d="m 50,959.36218 c -23.7362,0 -43,19.26375 -43,43.00002 0,23.7362 19.2638,43 43,43 23.7362,0 43,-19.2638 43,-43 0,-23.73627 -19.2638,-43.00002 -43,-43.00002 z m 0,2 c 22.6554,0 41,18.34465 41,41.00002 0,22.6553 -18.3446,41 -41,41 -22.6554,0 -41,-18.3447 -41,-41 0,-22.65537 18.3446,-41.00002 41,-41.00002 z m -15.1875,21 a 1.0001,1.0001 0 0 0 -0.8125,1 l 0,38.00002 a 1.0001,1.0001 0 0 0 1.5,0.875 l 34,-19 a 1.0001,1.0001 0 0 0 0.5,-1 1.0001,1.0001 0 0 0 -0.5,-0.75 l -34,-19.00002 a 1.0001,1.0001 0 0 0 -0.6875,-0.125 z M 36,985.04968 66.9688,1002.3622 36,1019.6747 36,985.04968 z"
       marker="none"
       visibility="visible"
       display="inline"
       overflow="visible"
       id="path2"
       stroke="none"
       fill-opacity="1"
       fill="#000000" />
  </g>
</svg>
